<svg width="67" height="60" viewBox="0 0 67 60" fill="none" xmlns="http://www.w3.org/2000/svg">
<path d="M0.753906 41.9988H16.5602C16.8131 47.7094 12.008 49.6904 7.83511 49.5201C2.37247 49.2973 0.838206 44.413 0.753906 41.9988Z" stroke="#009688" stroke-linecap="round"/>
<path d="M6.78707 33.1984L3.13867 42.4267H6.15121L8.12088 37.8878C8.46916 37.0853 9.60731 37.0853 9.95558 37.8878L11.9253 42.4267H14.9378C14.8374 42.3263 12.8039 37.1129 11.7997 34.5188C10.9618 32.354 9.98152 31.5544 9.04906 31.3865C7.98884 31.1956 7.18313 32.1966 6.78707 33.1984Z" fill="#009688"/>
<path d="M49.457 41.9988H65.2633C65.5162 47.7094 60.7111 49.6904 56.5382 49.5201C51.0756 49.2973 49.5413 44.413 49.457 41.9988Z" stroke="#009688" stroke-linecap="round"/>
<path d="M55.4902 33.1984L51.8418 42.4267H54.8543L56.824 37.8878C57.1723 37.0853 58.3104 37.0853 58.6587 37.8878L60.6284 42.4267H63.6409C63.5405 42.3263 61.507 37.1129 60.5029 34.5188C59.6649 32.354 58.6846 31.5544 57.7522 31.3865C56.692 31.1956 55.8863 32.1966 55.4902 33.1984Z" fill="#009688"/>
<rect y="10.5437" width="66.2759" height="3.26359" fill="#009688"/>
<path d="M25.3556 16.0671C27.158 16.0671 28.6191 17.5283 28.6191 19.3307L28.6191 56.7364L25.3556 56.7364L25.3556 16.0671Z" fill="#009688"/>
<path d="M31.3809 16.0671C33.1834 16.0671 34.6445 17.5283 34.6445 19.3307L34.6445 56.7364L31.3809 56.7364L31.3809 16.0671Z" fill="#009688"/>
<path d="M37.4044 16.0671C39.2068 16.0671 40.668 17.5283 40.668 19.3307L40.668 56.7364L37.4044 56.7364L37.4044 16.0671Z" fill="#009688"/>
<rect x="11.5488" y="5.27173" width="43.1798" height="3.26359" fill="#009688"/>
<rect x="18.0762" y="56.7363" width="30.1254" height="3.26359" fill="#009688"/>
<rect x="21.0879" width="24.1003" height="3.26359" fill="#009688"/>
<path d="M10.7949 13.8079L10.7949 29.8747C8.99249 29.8747 7.53134 28.4136 7.53134 26.6112L7.53134 13.8079L10.7949 13.8079Z" fill="#009688"/>
<path d="M59.498 13.8079L59.498 26.6112C59.498 28.4136 58.0369 29.8747 56.2345 29.8747L56.2345 13.8079L59.498 13.8079Z" fill="#009688"/>
</svg>
