<svg width="18" height="18" viewBox="0 0 18 18" fill="none" xmlns="http://www.w3.org/2000/svg">
<path d="M3.44114 3.44114C2.15512 4.72716 1.35479 6.4193 1.17653 8.22926C0.99826 10.0392 1.45309 11.855 2.46351 13.3672C3.47393 14.8794 4.97742 15.9945 6.71782 16.5224C8.45822 17.0503 10.3278 16.9585 12.0081 16.2625C13.6884 15.5665 15.0753 14.3094 15.9327 12.7055C16.79 11.1015 17.0647 9.24992 16.7098 7.46616C16.355 5.68239 15.3927 4.07684 13.9868 2.92306C12.5809 1.76928 10.8185 1.13867 8.99978 1.13867" stroke="white" stroke-width="1.5" stroke-linecap="round"/>
<path d="M9.00032 9.00032L3.66699 3.66699" stroke="white" stroke-width="1.5" stroke-linecap="round"/>
<path d="M9 1V2.77778" stroke="white" stroke-width="1.5" stroke-linecap="round"/>
<path d="M17 9L15.2222 9" stroke="white" stroke-width="1.5" stroke-linecap="round"/>
<path d="M9 15.2222V16.9999" stroke="white" stroke-width="1.5" stroke-linecap="round"/>
<path d="M2.77734 9L0.999566 9" stroke="white" stroke-width="1.5" stroke-linecap="round"/>
</svg>
