<svg width="51" height="56" viewBox="0 0 51 56" fill="none" xmlns="http://www.w3.org/2000/svg">
<path d="M28.3244 1H16.4153C11.0323 1 8.34071 1 6.6684 2.75736C4.99609 4.51472 4.99609 7.34315 4.99609 13V43C4.99609 48.6569 4.99609 51.4853 6.6684 53.2426C8.34071 55 11.0323 55 16.4153 55H33.5442C38.9273 55 41.6188 55 43.2911 53.2426C44.9634 51.4853 44.9634 48.6569 44.9634 43V18.4853C44.9634 17.259 44.9634 16.6459 44.7461 16.0946C44.5288 15.5433 44.1163 15.1097 43.2911 14.2426L32.3617 2.75736C31.5366 1.89027 31.124 1.45672 30.5994 1.22836C30.0747 1 29.4913 1 28.3244 1Z" fill="white" stroke="#009688" stroke-width="2"/>
<path d="M9.99219 14.5L24.9799 14.5" stroke="#009688" stroke-linecap="round"/>
<path d="M9.99219 17.1997L24.9799 17.1997" stroke="#009688" stroke-linecap="round"/>
<path d="M9.99219 11.8003L19.984 11.8003" stroke="#009688" stroke-linecap="round"/>
<path d="M29.9766 1V11C29.9766 13.357 29.9766 14.5355 30.7082 15.2678C31.4398 16 32.6174 16 34.9725 16H44.9643" stroke="#009688"/>
<path d="M51 29H2.4878H0V46H51V29Z" fill="#009688"/>
<path d="M21.3037 36.9072C21.3037 38.0329 21.0986 38.974 20.6885 39.7305C20.2783 40.4824 19.6836 41.0498 18.9043 41.4326C18.1296 41.8109 17.1885 42 16.0811 42H13.3672V32.0059H16.3818C17.3981 32.0059 18.2731 32.1927 19.0068 32.5664C19.7406 32.9355 20.3057 33.4847 20.7021 34.2139C21.1032 34.9385 21.3037 35.8363 21.3037 36.9072ZM20.0801 36.9482C20.0801 36.0505 19.9297 35.3099 19.6289 34.7266C19.3327 34.1432 18.8952 33.7103 18.3164 33.4277C17.7422 33.1406 17.0381 32.9971 16.2041 32.9971H14.5293V41.002H15.9443C17.3206 41.002 18.3529 40.6624 19.041 39.9834C19.7337 39.3044 20.0801 38.2926 20.0801 36.9482ZM29.8145 38.2402C29.8145 38.8555 29.7347 39.4046 29.5752 39.8877C29.4157 40.3708 29.1855 40.7786 28.8848 41.1113C28.584 41.444 28.2194 41.6992 27.791 41.877C27.3672 42.0501 26.8864 42.1367 26.3486 42.1367C25.8473 42.1367 25.387 42.0501 24.9678 41.877C24.5531 41.6992 24.193 41.444 23.8877 41.1113C23.5869 40.7786 23.3522 40.3708 23.1836 39.8877C23.0195 39.4046 22.9375 38.8555 22.9375 38.2402C22.9375 37.4199 23.0765 36.7227 23.3545 36.1484C23.6325 35.5697 24.029 35.1299 24.5439 34.8291C25.0635 34.5238 25.681 34.3711 26.3965 34.3711C27.0801 34.3711 27.6771 34.5238 28.1875 34.8291C28.7025 35.1344 29.1012 35.5765 29.3838 36.1553C29.6709 36.7295 29.8145 37.4245 29.8145 38.2402ZM24.1133 38.2402C24.1133 38.8418 24.193 39.3636 24.3525 39.8057C24.512 40.2477 24.7581 40.5895 25.0908 40.8311C25.4235 41.0726 25.8519 41.1934 26.376 41.1934C26.8955 41.1934 27.3216 41.0726 27.6543 40.8311C27.9915 40.5895 28.2399 40.2477 28.3994 39.8057C28.5589 39.3636 28.6387 38.8418 28.6387 38.2402C28.6387 37.6432 28.5589 37.1283 28.3994 36.6953C28.2399 36.2578 27.9938 35.9206 27.6611 35.6836C27.3285 35.4466 26.8978 35.3281 26.3691 35.3281C25.5898 35.3281 25.0179 35.5856 24.6533 36.1006C24.2933 36.6156 24.1133 37.3288 24.1133 38.2402ZM34.7773 42.1367C34.1029 42.1367 33.5081 41.9977 32.9932 41.7197C32.4782 41.4417 32.0771 41.0179 31.79 40.4482C31.5029 39.8786 31.3594 39.1608 31.3594 38.2949C31.3594 37.388 31.5098 36.6475 31.8105 36.0732C32.1159 35.4945 32.5352 35.0661 33.0684 34.7881C33.6016 34.5101 34.2077 34.3711 34.8867 34.3711C35.2604 34.3711 35.6204 34.4098 35.9668 34.4873C36.3177 34.5602 36.6048 34.6536 36.8281 34.7676L36.4863 35.7178C36.2585 35.6266 35.9941 35.5446 35.6934 35.4717C35.3971 35.3988 35.1191 35.3623 34.8594 35.3623C34.3398 35.3623 33.9069 35.474 33.5605 35.6973C33.2188 35.9206 32.9613 36.2487 32.7881 36.6816C32.6195 37.1146 32.5352 37.6478 32.5352 38.2812C32.5352 38.8874 32.6172 39.4046 32.7812 39.833C32.9499 40.2614 33.1982 40.5895 33.5264 40.8174C33.859 41.0407 34.2738 41.1523 34.7705 41.1523C35.167 41.1523 35.5247 41.1113 35.8438 41.0293C36.1628 40.9427 36.4521 40.8424 36.7119 40.7285V41.7402C36.4613 41.8678 36.181 41.9658 35.8711 42.0342C35.5658 42.1025 35.2012 42.1367 34.7773 42.1367Z" fill="white"/>
</svg>
