<svg width="16" height="16" viewBox="0 0 16 16" fill="none" xmlns="http://www.w3.org/2000/svg">
<path d="M13.9999 12.6665H1.99992C1.82311 12.6665 1.65354 12.7367 1.52851 12.8618C1.40349 12.9868 1.33325 13.1564 1.33325 13.3332C1.33325 13.51 1.40349 13.6796 1.52851 13.8046C1.65354 13.9296 1.82311 13.9998 1.99992 13.9998H13.9999C14.1767 13.9998 14.3463 13.9296 14.4713 13.8046C14.5963 13.6796 14.6666 13.51 14.6666 13.3332C14.6666 13.1564 14.5963 12.9868 14.4713 12.8618C14.3463 12.7367 14.1767 12.6665 13.9999 12.6665Z" fill="#2D9CDB"/>
<path d="M8.00004 1.3335C7.82323 1.3335 7.65366 1.40373 7.52864 1.52876C7.40361 1.65378 7.33337 1.82335 7.33337 2.00016V9.06016L5.14004 6.86016C5.01451 6.73463 4.84424 6.6641 4.66671 6.6641C4.48917 6.6641 4.31891 6.73463 4.19338 6.86016C4.06784 6.9857 3.99731 7.15596 3.99731 7.3335C3.99731 7.51103 4.06784 7.68129 4.19338 7.80683L7.52671 11.1402C7.58868 11.2026 7.66242 11.2522 7.74366 11.2861C7.8249 11.3199 7.91203 11.3374 8.00004 11.3374C8.08805 11.3374 8.17519 11.3199 8.25643 11.2861C8.33767 11.2522 8.4114 11.2026 8.47337 11.1402L11.8067 7.80683C11.8689 7.74467 11.9182 7.67088 11.9518 7.58966C11.9855 7.50845 12.0028 7.4214 12.0028 7.3335C12.0028 7.24559 11.9855 7.15854 11.9518 7.07733C11.9182 6.99612 11.8689 6.92232 11.8067 6.86016C11.7445 6.798 11.6708 6.7487 11.5895 6.71506C11.5083 6.68142 11.4213 6.6641 11.3334 6.6641C11.2455 6.6641 11.1584 6.68142 11.0772 6.71506C10.996 6.7487 10.9222 6.798 10.86 6.86016L8.66671 9.06016V2.00016C8.66671 1.82335 8.59647 1.65378 8.47145 1.52876C8.34642 1.40373 8.17685 1.3335 8.00004 1.3335Z" fill="#2D9CDB"/>
</svg>
