<svg width="13" height="13" viewBox="0 0 13 13" fill="none" xmlns="http://www.w3.org/2000/svg">
<path fill-rule="evenodd" clip-rule="evenodd" d="M10.8982 4.92673L12.0888 3.73609C12.1884 3.63646 12.2382 3.58665 12.2778 3.54207C12.9499 2.78469 12.9499 1.64448 12.2778 0.887097C12.2382 0.842516 12.1884 0.792704 12.0888 0.693078L12.0888 0.693054C11.9892 0.593445 11.9394 0.543637 11.8948 0.504079C11.1374 -0.168026 9.9972 -0.168026 9.23982 0.504079C9.19524 0.54364 9.14542 0.593453 9.0458 0.693078L7.83734 1.90153C8.56144 3.16411 9.61829 4.21273 10.8982 4.92673ZM6.38266 3.35622L1.5339 8.20498C1.10884 8.63004 0.896306 8.84257 0.756571 9.10367C0.616836 9.36476 0.557891 9.65949 0.440001 10.2489L0.0638519 12.1297C-0.00267025 12.4623 -0.0359313 12.6286 0.0586767 12.7232C0.153285 12.8178 0.31959 12.7846 0.6522 12.718L2.53294 12.3419L2.53296 12.3419L2.53299 12.3419C3.12241 12.224 3.41713 12.165 3.67822 12.0253C3.93932 11.8856 4.15184 11.6731 4.5769 11.248L4.5769 11.248L4.57691 11.248L9.43969 6.38521C8.21106 5.60632 7.16882 4.57112 6.38266 3.35622Z" fill="#54A8E0"/>
</svg>
