<svg width="5" height="19" viewBox="0 0 5 19" fill="none" xmlns="http://www.w3.org/2000/svg">
<path d="M3.875 12.3164H1.01562L0.417969 0.867188H4.47266L3.875 12.3164ZM0.371094 16.3242C0.371094 15.5898 0.570312 15.0742 0.96875 14.7773C1.375 14.4805 1.86328 14.332 2.43359 14.332C2.98828 14.332 3.46484 14.4805 3.86328 14.7773C4.26953 15.0742 4.47266 15.5898 4.47266 16.3242C4.47266 17.0273 4.26953 17.5352 3.86328 17.8477C3.46484 18.1602 2.98828 18.3164 2.43359 18.3164C1.86328 18.3164 1.375 18.1602 0.96875 17.8477C0.570312 17.5352 0.371094 17.0273 0.371094 16.3242Z" fill="#FF0000"/>
</svg>
