<svg width="31" height="19" viewBox="0 0 31 19" fill="none" xmlns="http://www.w3.org/2000/svg">
<path d="M1 4.5H5" stroke="black" stroke-linecap="round"/>
<path d="M1 12.5H5" stroke="black" stroke-linecap="round"/>
<path d="M1 8.5H5" stroke="black" stroke-linecap="round"/>
<path fill-rule="evenodd" clip-rule="evenodd" d="M2.51071 2.6954C2.50666 2.83786 2.50463 2.9091 2.54881 2.95455C2.59299 3 2.6649 3 2.80872 3H5C5.82843 3 6.5 3.67157 6.5 4.5C6.5 5.32843 5.82843 6 5 6H2.8C2.65858 6 2.58787 6 2.54393 6.04393C2.5 6.08787 2.5 6.15858 2.5 6.3V6.7C2.5 6.84142 2.5 6.91213 2.54393 6.95607C2.58787 7 2.65858 7 2.8 7H5C5.82843 7 6.5 7.67157 6.5 8.5C6.5 9.32843 5.82843 10 5 10H2.8C2.65858 10 2.58787 10 2.54393 10.0439C2.5 10.0879 2.5 10.1586 2.5 10.3V10.7C2.5 10.8414 2.5 10.9121 2.54393 10.9561C2.58787 11 2.65858 11 2.8 11H5C5.82843 11 6.5 11.6716 6.5 12.5C6.5 13.3284 5.82843 14 5 14H2.8C2.65852 14 2.58777 14 2.54383 14.044C2.49989 14.088 2.49996 14.1588 2.5001 14.3005C2.50175 15.9875 2.53198 16.8604 3.08579 17.4142C3.67157 18 4.61438 18 6.5 18H12.5C14.3856 18 15.3284 18 15.9142 17.4142C16.5 16.8284 16.5 15.8856 16.5 14V4C16.5 2.11438 16.5 1.17157 15.9142 0.585786C15.3284 0 14.3856 0 12.5 0H6.5C4.61438 0 3.67157 0 3.08579 0.585786C2.65431 1.01726 2.54065 1.64243 2.51071 2.6954Z" fill="black"/>
<path d="M13 7.5V4.5" stroke="black" stroke-linecap="round"/>
<path fill-rule="evenodd" clip-rule="evenodd" d="M23.6721 4.80681L23.665 3.123C23.6644 2.98211 23.6641 2.91167 23.6603 2.85219C23.5958 1.84165 22.7862 1.03879 21.7751 0.982731C21.7156 0.979431 21.6452 0.979726 21.5043 0.980318L21.5042 0.980319C21.3634 0.980909 21.2929 0.981205 21.2334 0.985004C20.2229 1.04955 19.4201 1.85917 19.364 2.87022C19.3607 2.92973 19.361 3.00017 19.3616 3.14106L19.3688 4.85006C20.7751 5.22492 22.2639 5.21286 23.6721 4.80681ZM19.3774 6.90728L19.4062 13.7644C19.4087 14.3655 19.4099 14.6661 19.4969 14.9491C19.584 15.2322 19.7517 15.4816 20.0873 15.9804L21.1579 17.5717C21.3472 17.8532 21.4419 17.9939 21.5757 17.9933C21.7095 17.9928 21.8029 17.8513 21.9899 17.5683L23.0471 15.9679L23.0471 15.9679L23.0471 15.9679C23.3785 15.4664 23.5441 15.2156 23.6287 14.9318C23.7134 14.648 23.7121 14.3475 23.7096 13.7464L23.7096 13.7464L23.7096 13.7463L23.6807 6.86939C22.2625 7.19336 20.7936 7.2045 19.3774 6.90728Z" fill="#1348FC"/>
</svg>
