<svg width="162" height="44" viewBox="0 0 162 44" fill="none" xmlns="http://www.w3.org/2000/svg">
<path d="M0.525879 31.335H11.5661C11.7428 35.3237 8.38655 36.7073 5.47192 36.5884C1.6564 36.4328 0.58476 33.0213 0.525879 31.335Z" stroke="white" stroke-linecap="round"/>
<path d="M4.55296 25.6606L2.19141 31.634H4.29559L5.39475 29.1011C5.74302 28.2985 6.88117 28.2985 7.22944 29.1011L8.3286 31.634H10.4328C10.3626 31.5638 8.94232 27.9224 8.24093 26.1105C7.79721 24.9642 7.29635 24.3659 6.79623 24.0925C5.85102 23.5757 4.94903 24.6588 4.55296 25.6606Z" fill="white"/>
<path d="M34.5435 31.335H45.5837C45.7604 35.3237 42.4041 36.7073 39.4895 36.5884C35.674 36.4328 34.6023 33.0213 34.5435 31.335Z" stroke="white" stroke-linecap="round"/>
<path d="M38.5705 25.6606L36.209 31.634H38.3132L39.4123 29.1011C39.7606 28.2985 40.8987 28.2985 41.247 29.1011L42.3462 31.634H44.4504C44.3802 31.5638 42.9599 27.9224 42.2585 26.1105C41.8148 24.9642 41.3139 24.3659 40.8138 24.0925C39.8686 23.5757 38.9666 24.6588 38.5705 25.6606Z" fill="white"/>
<rect y="9.36475" width="46.292" height="2.27953" fill="white"/>
<path d="M17.7102 13.2222C18.9692 13.2222 19.9897 14.2427 19.9897 15.5017L19.9897 41.6286L17.7102 41.6286L17.7102 13.2222Z" fill="white"/>
<path d="M21.9187 13.2222C23.1777 13.2222 24.1982 14.2427 24.1982 15.5017L24.1982 41.6286L21.9187 41.6286L21.9187 13.2222Z" fill="white"/>
<path d="M26.1267 13.2222C27.3857 13.2222 28.4062 14.2427 28.4062 15.5017L28.4062 41.6286L26.1267 41.6286L26.1267 13.2222Z" fill="white"/>
<rect x="8.06592" y="5.68213" width="30.1599" height="2.27953" fill="white"/>
<rect x="12.625" y="41.6289" width="21.0418" height="2.27953" fill="white"/>
<rect x="14.7295" y="2" width="16.8335" height="2.27953" fill="white"/>
<path d="M7.54004 11.644L7.54004 22.8663C6.28109 22.8663 5.26051 21.8458 5.26051 20.5868L5.26051 11.644L7.54004 11.644Z" fill="white"/>
<path d="M41.5576 11.644L41.5576 20.5868C41.5576 21.8458 40.537 22.8663 39.2781 22.8663L39.2781 11.644L41.5576 11.644Z" fill="white"/>
<path d="M57.072 21V18.5H57.932C58.572 18.5 59.0787 18.32 59.452 17.96C59.8387 17.5867 60.032 17.0933 60.032 16.48V6.1H62.772V16.38C62.772 17.3 62.572 18.1067 62.172 18.8C61.7853 19.4933 61.2253 20.0333 60.492 20.42C59.772 20.8067 58.9187 21 57.932 21H57.072ZM71.3236 21.24C70.1769 21.24 69.1569 21 68.2636 20.52C67.3836 20.04 66.6902 19.38 66.1836 18.54C65.6769 17.7 65.4236 16.7467 65.4236 15.68V6.1H68.1436V15.54C68.1436 16.1533 68.2769 16.7067 68.5436 17.2C68.8236 17.6933 69.2036 18.08 69.6836 18.36C70.1636 18.6267 70.7102 18.76 71.3236 18.76C71.9502 18.76 72.4969 18.6267 72.9636 18.36C73.4436 18.08 73.8169 17.6933 74.0836 17.2C74.3636 16.7067 74.5036 16.1533 74.5036 15.54V6.1H77.2236V15.68C77.2236 16.7467 76.9702 17.7 76.4636 18.54C75.9569 19.38 75.2569 20.04 74.3636 20.52C73.4836 21 72.4702 21.24 71.3236 21.24ZM79.939 21V6.1H84.799C86.3724 6.1 87.739 6.42 88.899 7.06C90.0724 7.68667 90.979 8.56 91.619 9.68C92.259 10.7867 92.579 12.0733 92.579 13.54C92.579 14.9933 92.259 16.2867 91.619 17.42C90.979 18.54 90.0724 19.42 88.899 20.06C87.739 20.6867 86.3724 21 84.799 21H79.939ZM82.659 18.6H84.859C85.8724 18.6 86.7457 18.3933 87.479 17.98C88.2257 17.5533 88.8057 16.9667 89.219 16.22C89.6324 15.46 89.839 14.5667 89.839 13.54C89.839 12.5 89.6324 11.6067 89.219 10.86C88.8057 10.1133 88.2257 9.53333 87.479 9.12C86.7457 8.70667 85.8724 8.5 84.859 8.5H82.659V18.6ZM94.7437 21V6.1H97.4637V21H94.7437ZM107.33 21.24C106.263 21.24 105.276 21.0467 104.37 20.66C103.476 20.2733 102.69 19.7333 102.01 19.04C101.343 18.3467 100.823 17.5333 100.45 16.6C100.076 15.6667 99.8896 14.6467 99.8896 13.54C99.8896 12.4333 100.07 11.4133 100.43 10.48C100.803 9.53333 101.323 8.72 101.99 8.04C102.67 7.34667 103.463 6.81333 104.37 6.44C105.276 6.05333 106.263 5.86 107.33 5.86C108.396 5.86 109.35 6.04 110.19 6.4C111.043 6.76 111.763 7.24 112.35 7.84C112.936 8.42667 113.356 9.07333 113.61 9.78L111.17 10.92C110.89 10.1733 110.416 9.56 109.75 9.08C109.083 8.58667 108.276 8.34 107.33 8.34C106.396 8.34 105.57 8.56 104.85 9C104.143 9.44 103.59 10.0467 103.19 10.82C102.803 11.5933 102.61 12.5 102.61 13.54C102.61 14.58 102.803 15.4933 103.19 16.28C103.59 17.0533 104.143 17.66 104.85 18.1C105.57 18.54 106.396 18.76 107.33 18.76C108.276 18.76 109.083 18.52 109.75 18.04C110.416 17.5467 110.89 16.9267 111.17 16.18L113.61 17.32C113.356 18.0267 112.936 18.68 112.35 19.28C111.763 19.8667 111.043 20.34 110.19 20.7C109.35 21.06 108.396 21.24 107.33 21.24ZM115.818 21V6.1H118.538V21H115.818ZM120.184 21L125.324 6.1H128.844L133.984 21H131.024L129.964 17.8H124.204L123.124 21H120.184ZM124.984 15.4H129.184L126.704 7.98H127.464L124.984 15.4ZM135.642 21V6.1H141.182C142.195 6.1 143.089 6.28667 143.862 6.66C144.649 7.02 145.262 7.55333 145.702 8.26C146.142 8.95333 146.362 9.8 146.362 10.8C146.362 11.8267 146.115 12.7 145.622 13.42C145.142 14.14 144.489 14.6733 143.662 15.02L147.082 21H144.002L140.342 14.46L142.102 15.5H138.362V21H135.642ZM138.362 13.1H141.222C141.715 13.1 142.142 13.0067 142.502 12.82C142.862 12.62 143.142 12.3467 143.342 12C143.542 11.6533 143.642 11.2533 143.642 10.8C143.642 10.3333 143.542 9.93333 143.342 9.6C143.142 9.25333 142.862 8.98667 142.502 8.8C142.142 8.6 141.715 8.5 141.222 8.5H138.362V13.1ZM152.469 21V14.4L147.449 6.1H150.549L154.389 12.58H153.289L157.109 6.1H160.209L155.209 14.38V21H152.469Z" fill="white"/>
<path d="M72.4609 36.5H71.626V30.0938H69.3799V29.3613H74.6973V30.0938H72.4609V36.5ZM81.1865 36.5H80.3564V33.1357H76.6064V36.5H75.7764V29.3613H76.6064V32.4033H80.3564V29.3613H81.1865V36.5ZM87.124 36.5H83.1494V29.3613H87.124V30.0938H83.9795V32.4033H86.9434V33.126H83.9795V35.7676H87.124V36.5ZM91.3037 29.3613H93.3252C94.2171 29.3613 94.8877 29.4948 95.3369 29.7617C95.7861 30.0286 96.0107 30.4827 96.0107 31.124C96.0107 31.4007 95.957 31.6497 95.8496 31.8711C95.7454 32.0892 95.5924 32.2699 95.3906 32.4131C95.1888 32.5563 94.9398 32.6556 94.6436 32.7109V32.7598C94.9561 32.8086 95.2327 32.8981 95.4736 33.0283C95.7145 33.1585 95.9033 33.3408 96.04 33.5752C96.1768 33.8096 96.2451 34.1074 96.2451 34.4688C96.2451 34.9082 96.1426 35.2793 95.9375 35.582C95.7357 35.8848 95.4492 36.1143 95.0781 36.2705C94.707 36.4235 94.2676 36.5 93.7598 36.5H91.3037V29.3613ZM92.1338 32.4229H93.501C94.1227 32.4229 94.5524 32.3203 94.79 32.1152C95.0309 31.9102 95.1514 31.6107 95.1514 31.2168C95.1514 30.8099 95.0081 30.5169 94.7217 30.3379C94.4385 30.1589 93.986 30.0693 93.3643 30.0693H92.1338V32.4229ZM92.1338 33.1211V35.792H93.6182C94.2529 35.792 94.7021 35.6683 94.9658 35.4209C95.2295 35.1702 95.3613 34.8333 95.3613 34.4102C95.3613 34.14 95.3011 33.9089 95.1807 33.7168C95.0635 33.5247 94.8714 33.3783 94.6045 33.2773C94.3408 33.1732 93.9876 33.1211 93.5449 33.1211H92.1338ZM102.246 36.5L101.367 34.2344H98.5059L97.6318 36.5H96.792L99.585 29.332H100.332L103.105 36.5H102.246ZM101.118 33.4971L100.283 31.2461C100.264 31.1875 100.231 31.0915 100.186 30.958C100.143 30.8245 100.099 30.6862 100.054 30.543C100.008 30.3997 99.9707 30.2842 99.9414 30.1963C99.9089 30.3298 99.873 30.4632 99.834 30.5967C99.7982 30.7269 99.7624 30.849 99.7266 30.9629C99.6908 31.0736 99.6598 31.168 99.6338 31.2461L98.7842 33.4971H101.118ZM109.507 36.5H108.677V33.1357H104.927V36.5H104.097V29.3613H104.927V32.4033H108.677V29.3613H109.507V36.5ZM115.947 36.5L115.068 34.2344H112.207L111.333 36.5H110.493L113.286 29.332H114.033L116.807 36.5H115.947ZM114.819 33.4971L113.984 31.2461C113.965 31.1875 113.932 31.0915 113.887 30.958C113.844 30.8245 113.8 30.6862 113.755 30.543C113.709 30.3997 113.672 30.2842 113.643 30.1963C113.61 30.3298 113.574 30.4632 113.535 30.5967C113.499 30.7269 113.464 30.849 113.428 30.9629C113.392 31.0736 113.361 31.168 113.335 31.2461L112.485 33.4971H114.819ZM120.938 36.5L118.54 30.1816H118.501C118.514 30.3151 118.525 30.4779 118.535 30.6699C118.545 30.862 118.553 31.0719 118.56 31.2998C118.566 31.5244 118.569 31.7539 118.569 31.9883V36.5H117.798V29.3613H119.028L121.289 35.2988H121.323L123.618 29.3613H124.839V36.5H124.019V31.9297C124.019 31.7181 124.022 31.5065 124.028 31.2949C124.035 31.0801 124.043 30.8783 124.053 30.6895C124.062 30.4974 124.072 30.3314 124.082 30.1914H124.043L121.616 36.5H120.938ZM131.27 36.5L130.391 34.2344H127.529L126.655 36.5H125.815L128.608 29.332H129.355L132.129 36.5H131.27ZM130.142 33.4971L129.307 31.2461C129.287 31.1875 129.255 31.0915 129.209 30.958C129.167 30.8245 129.123 30.6862 129.077 30.543C129.032 30.3997 128.994 30.2842 128.965 30.1963C128.932 30.3298 128.896 30.4632 128.857 30.5967C128.822 30.7269 128.786 30.849 128.75 30.9629C128.714 31.0736 128.683 31.168 128.657 31.2461L127.808 33.4971H130.142ZM137.148 34.6006C137.148 35.0238 137.043 35.3851 136.831 35.6846C136.623 35.9808 136.33 36.207 135.952 36.3633C135.575 36.5195 135.13 36.5977 134.619 36.5977C134.349 36.5977 134.093 36.5846 133.853 36.5586C133.612 36.5326 133.39 36.4951 133.188 36.4463C132.987 36.3975 132.809 36.3372 132.656 36.2656V35.4697C132.9 35.5706 133.198 35.665 133.55 35.7529C133.901 35.8376 134.269 35.8799 134.653 35.8799C135.011 35.8799 135.314 35.8327 135.562 35.7383C135.809 35.6406 135.996 35.5023 136.123 35.3232C136.253 35.141 136.318 34.9229 136.318 34.6689C136.318 34.4248 136.265 34.2214 136.157 34.0586C136.05 33.8926 135.871 33.7428 135.62 33.6094C135.373 33.4727 135.034 33.3278 134.604 33.1748C134.302 33.0674 134.035 32.9502 133.804 32.8232C133.573 32.693 133.379 32.5465 133.223 32.3838C133.066 32.221 132.948 32.0322 132.866 31.8174C132.788 31.6025 132.749 31.3568 132.749 31.0801C132.749 30.6992 132.845 30.3737 133.037 30.1035C133.232 29.8301 133.501 29.6217 133.843 29.4785C134.188 29.332 134.583 29.2588 135.029 29.2588C135.41 29.2588 135.762 29.2946 136.084 29.3662C136.41 29.4378 136.707 29.5339 136.978 29.6543L136.719 30.3672C136.462 30.2598 136.188 30.1702 135.898 30.0986C135.612 30.027 135.316 29.9912 135.01 29.9912C134.704 29.9912 134.445 30.0368 134.233 30.1279C134.025 30.2158 133.866 30.3411 133.755 30.5039C133.644 30.6667 133.589 30.8604 133.589 31.085C133.589 31.3356 133.641 31.5439 133.745 31.71C133.853 31.876 134.022 32.0241 134.253 32.1543C134.487 32.2812 134.797 32.4147 135.181 32.5547C135.601 32.7077 135.957 32.8704 136.25 33.043C136.543 33.2122 136.766 33.4206 136.919 33.668C137.072 33.9121 137.148 34.223 137.148 34.6006Z" fill="white"/>
</svg>
