<svg width="22" height="17" viewBox="0 0 22 17" fill="none" xmlns="http://www.w3.org/2000/svg">
<path fill-rule="evenodd" clip-rule="evenodd" d="M0.00406667 4.83934C0 5.23621 0 5.66829 0 6.13965V10.7225C0 13.551 0 14.9652 0.87868 15.8438C1.75736 16.7225 3.17157 16.7225 6 16.7225H15.3208C18.1493 16.7225 19.5635 16.7225 20.4422 15.8438C21.3208 14.9652 21.3208 13.551 21.3208 10.7225V6.13965C21.3208 5.66829 21.3208 5.23621 21.3168 4.83934L11.6317 10.2199C11.0277 10.5555 10.2932 10.5555 9.68914 10.2199L0.00406667 4.83934ZM0.131114 2.70149C0.252209 2.71746 0.372393 2.75605 0.485643 2.81897L10.6604 8.47162L20.8352 2.81897C20.9485 2.75605 21.0686 2.71746 21.1897 2.70149C21.0736 1.96168 20.8548 1.43095 20.4422 1.01833C19.5635 0.139648 18.1493 0.139648 15.3208 0.139648H6C3.17157 0.139648 1.75736 0.139648 0.87868 1.01833C0.466054 1.43095 0.247197 1.96168 0.131114 2.70149Z" fill="white"/>
</svg>
