<svg width="23" height="19" viewBox="0 0 23 19" fill="none" xmlns="http://www.w3.org/2000/svg">
<path d="M5.33315 5.89306C5.66769 2.54764 8.4828 0 11.8449 0C15.207 0 18.0221 2.54764 18.3567 5.89306L18.6962 9.28799C18.7532 9.85797 18.7817 10.143 18.8296 10.4215C18.9868 11.3359 19.3019 12.216 19.7608 13.0224C19.9006 13.2681 20.0595 13.5064 20.3773 13.983L21.6169 15.8425C22.5294 17.2112 22.9856 17.8956 22.703 18.4237C22.4203 18.9519 21.5978 18.9519 19.9528 18.9519H3.73704C2.09201 18.9519 1.2695 18.9519 0.986843 18.4237C0.704189 17.8956 1.16044 17.2112 2.07293 15.8425L3.31256 13.983C3.63031 13.5064 3.78918 13.2681 3.92898 13.0224C4.38788 12.216 4.70301 11.3359 4.86026 10.4215C4.90816 10.143 4.93666 9.85797 4.99366 9.28799L5.33315 5.89306Z" fill="white"/>
</svg>
