<svg width="107" height="107" viewBox="0 0 107 107" fill="none" xmlns="http://www.w3.org/2000/svg">
<path d="M80.6312 22.8648C73.2158 16.4637 63.7499 12.9353 53.9538 12.9209C44.1578 12.9065 34.6816 16.4069 27.2473 22.7862C19.813 29.1654 14.914 38.0001 13.4405 47.6848C11.967 57.3694 14.0169 67.2613 19.2176 75.5629C24.4183 83.8645 32.4246 90.0248 41.7818 92.9244C51.1389 95.824 61.2258 95.2705 70.2094 91.3644C79.1931 87.4583 86.4773 80.4589 90.7384 71.6381C94.9994 62.8173 95.9546 52.7605 93.4303 43.2952L87.4526 44.8894C89.5953 52.9236 88.7845 61.4599 85.1677 68.9471C81.5509 76.4343 75.368 82.3754 67.7426 85.6909C60.1172 89.0064 51.5554 89.4763 43.613 87.0151C35.6706 84.5538 28.8747 79.3249 24.4604 72.2785C20.046 65.232 18.306 56.8357 19.5567 48.6153C20.8074 40.3949 24.9657 32.896 31.276 27.4812C37.5863 22.0665 45.6297 19.0952 53.9447 19.1075C62.2597 19.1197 70.2944 22.1146 76.5887 27.548L80.6312 22.8648Z" fill="#009688"/>
<path d="M32 45L54 67L93 28" stroke="#009688" stroke-width="8" stroke-linecap="round"/>
</svg>
