<svg width="16" height="16" viewBox="0 0 16 16" fill="none" xmlns="http://www.w3.org/2000/svg">
<path fill-rule="evenodd" clip-rule="evenodd" d="M13.7071 10.2929L8.70711 5.29289L8 4.58579L7.29289 5.29289L2.29289 10.2929L3.70711 11.7071L7 8.41421L7 16L2 16C0.895431 16 7.8281e-08 15.1046 1.74846e-07 14L1.22392e-06 2C1.32048e-06 0.895429 0.895432 -1.32048e-06 2 -1.22392e-06L14 -1.74846e-07C15.1046 -7.8281e-08 16 0.895431 16 2L16 14C16 15.1046 15.1046 16 14 16L9 16L9 8.41421L12.2929 11.7071L13.7071 10.2929Z" fill="#0EAA0E"/>
</svg>
