<svg width="67" height="67" viewBox="0 0 67 67" fill="none" xmlns="http://www.w3.org/2000/svg">
<g clip-path="url(#clip0_9_1312)">
<path d="M19.5417 50.2501C16.0585 50.2501 12.7179 48.9266 10.2549 46.5706C7.79191 44.2147 6.4082 41.0194 6.4082 37.6876C6.4082 34.3558 7.79191 31.1605 10.2549 28.8046C12.7179 26.4486 16.0585 25.1251 19.5417 25.1251C20.3644 21.4601 22.771 18.2394 26.2322 16.1714C27.946 15.1475 29.8671 14.4373 31.8858 14.0816C33.9046 13.7258 35.9814 13.7314 37.9977 14.098C40.0141 14.4646 41.9304 15.1851 43.6374 16.2182C45.3444 17.2514 46.8085 18.577 47.9463 20.1194C49.084 21.6619 49.873 23.3909 50.2683 25.2077C50.6636 27.0246 50.6574 28.8937 50.2501 30.7084H53.0417C55.6331 30.7084 58.1184 31.7379 59.9508 33.5702C61.7831 35.4026 62.8126 37.8879 62.8126 40.4793C62.8126 43.0707 61.7831 45.5559 59.9508 47.3883C58.1184 49.2207 55.6331 50.2501 53.0417 50.2501H50.2501" stroke="#484848" stroke-width="5" stroke-linecap="round" stroke-linejoin="round"/>
<path d="M25.125 41.875L33.5 33.5L41.875 41.875" stroke="#484848" stroke-width="5" stroke-linecap="round" stroke-linejoin="round"/>
<path d="M33.5 33.5V58.625" stroke="#484848" stroke-width="5" stroke-linecap="round" stroke-linejoin="round"/>
</g>
<defs>
<clipPath id="clip0_9_1312">
<rect width="67" height="67" fill="white"/>
</clipPath>
</defs>
</svg>
